
<svg xmlns="http://www.w3.org/2000/svg" xmlns:xlink="http://www.w3.org/1999/xlink" version="1.1" viewBox="839.68 448.27 30.36 19.56"><g fill="none" fill-rule="nonzero" stroke="none" stroke-width="1" stroke-linecap="butt" stroke-linejoin="miter" stroke-miterlimit="10" stroke-dasharray="" stroke-dashoffset="0" font-family="none" font-weight="none" font-size="none" text-anchor="none" style="mix-blend-mode: normal"><path d="M854.61878,454.18293l-5.91,5.91l-5.91,-5.91l5.9,-5.91l5.91,5.91zM841.07878,461.05293l-1.4,1.4l1.4,1.4l1.4,-1.4z" id="CompoundPath 1" fill="#39939e"/><path d="M843.24878,456.09293l-2.81,2.8l2.8,2.8l2.8,-2.8l-2.78,-2.8zM846.70878,459.55293l-3.93,3.93l3.93,3.93l3.93,-3.93zM851.34878,458.83293l-1.95,1.97l1.97,1.97l1.97,-1.97l-1.98,-1.97z" id="CompoundPath 1" fill="#212529"/><path d="M865.39878,467.82293c-0.41,-1.01 -0.82,-2.02 -1.23,-3.02h-8.57c-0.41,1.01 -0.82,2.02 -1.23,3.02h-4.62c0.45,-1.11 0.91,-2.22 1.36,-3.33c2.54,-2.46 5.08,-4.91 7.62,-7.37c-0.57,1.39 -1.13,2.78 -1.7,4.18h5.71c-0.95,-2.34 -1.9,-4.68 -2.86,-7.03c-0.39,0.95 -0.77,1.9 -1.16,2.85c-1.07,-1.15 -2.14,-2.31 -3.21,-3.46c0.69,-1.69 1.38,-3.38 2.07,-5.07h4.62c2.61,6.41 5.23,12.82 7.84,19.24h-4.65z" id="Path 1" fill="#212529"/></g></svg>
